<?xml version="1.0" standalone="no"?>
<!DOCTYPE svg PUBLIC "-//W3C//DTD SVG 20010904//EN"
 "http://www.w3.org/TR/2001/REC-SVG-20010904/DTD/svg10.dtd">
<svg version="1.0" xmlns="http://www.w3.org/2000/svg"
 width="64.000000pt" height="64.000000pt" viewBox="0 0 64.000000 64.000000"
 preserveAspectRatio="xMidYMid meet">

<g transform="translate(0.000000,64.000000) scale(0.100000,-0.100000)"
fill="#000000" stroke="none">
<path d="M203 564 c-54 -27 -63 -61 -63 -243 0 -238 16 -261 180 -261 147 0
185 37 178 176 -2 56 -9 80 -26 103 -17 23 -22 44 -22 87 0 71 -22 118 -65
138 -42 20 -140 20 -182 0z m201 -30 c24 -24 26 -34 26 -104 0 -69 3 -79 25
-100 23 -22 25 -31 25 -110 0 -81 -2 -89 -26 -114 -26 -25 -31 -26 -134 -26
-103 0 -108 1 -134 26 l-26 27 0 187 0 187 26 27 c25 24 33 26 109 26 76 0 84
-2 109 -26z"/>
<path d="M252 468 c-16 -16 -16 -80 0 -96 7 -7 26 -12 43 -12 40 0 55 16 55
60 0 44 -15 60 -55 60 -17 0 -36 -5 -43 -12z m78 -48 c0 -39 -1 -40 -35 -40
-34 0 -35 1 -35 40 0 39 1 40 35 40 34 0 35 -1 35 -40z"/>
<path d="M250 261 c-5 -11 -10 -29 -10 -41 0 -47 17 -60 78 -60 67 0 82 11 82
60 0 49 -15 60 -82 60 -46 0 -59 -4 -68 -19z m130 -41 l0 -40 -60 0 -60 0 0
40 0 40 60 0 60 0 0 -40z"/>
</g>
</svg>
