<svg xmlns="http://www.w3.org/2000/svg" version="1.1" xmlns:xlink="http://www.w3.org/1999/xlink" xmlns:svgjs="http://svgjs.dev/svgjs" width="1000" height="750" viewBox="0 0 1000 750"><rect width="1000" height="750" fill="#ffffff"></rect><g transform="matrix(0.834,0,0,0.834,82.49490057281673,217.2154948530576)"><svg viewBox="0 0 396 150" data-background-color="#ffffff" preserveAspectRatio="xMidYMid meet" height="378" width="1000" xmlns="http://www.w3.org/2000/svg" xmlns:xlink="http://www.w3.org/1999/xlink"><g id="tight-bounds" transform="matrix(1,0,0,1,0.24008861730862918,0.07541830675573635)"><svg viewBox="0 0 395.52 149.84905285891787" height="149.84905285891787" width="395.52"><g><svg viewBox="0 0 395.52 149.84905285891787" height="149.84905285891787" width="395.52"><g><svg viewBox="0 0 395.52 149.84905285891787" height="149.84905285891787" width="395.52"><g id="textblocktransform"><svg viewBox="0 0 395.52 149.84905285891787" height="149.84905285891787" width="395.52" id="textblock"><g><svg viewBox="0 0 395.52 149.84905285891787" height="149.84905285891787" width="395.52"><path d="M394.594 32.14C392.735 16.585 387.435 12.261 387.435 12.261 371.165-3.76 350.86-0.306 332.619 1.996 300.414 2.089 268.339 5.511 236.208 7.346 168.767 7.626 100.749 3.022 33.643 14.377 27.339 17.861-6.54 15.061 1.121 34.131 3.129 42.063 10.456 50.867 10.232 58.147 11.236 59.422 12.631 56.498 13.226 58.333 15.309 63.279 18.711 60.946 21.501 63.87 17.614 71.679 20.403 78.18 23.062 84.993 18.377 86.766 12.371 85.926 9.675 91.806 9.396 96.068 7.89 95.259 6.235 95.072 5.026 94.948 2.59 95.415 2.999 96.752 4.394 101.325-1.594 103.969 2.162 108.449-0.422 113.302 3.948 117.502 3.353 122.759 3.278 123.817 3.687 124.719 4.338 124.968 7.22 126.305 3.018 128.918 3.464 131.749 33.029 151.099 65.104 137.722 95.394 146.619 103.259 140.398 97.346 148.828 100.489 147.521 102.943 145.997 104.728 152.312 107.499 148.735 107.927 147.708 107.276 145.282 108.8 145.748 109.6 145.997 110.307 145.935 110.418 144.504 110.586 142.357 109.117 143.695 108.726 142.575 112.947 136.913 111.906 150.383 115.866 149.823 115.68 148.175 114.528 145.81 116.889 146.122 119.232 143.757 119.306 141.797 121.389 147.117 121.463 148.268 121.835 149.077 122.43 149.637 128.938 143.851 135.409 151.69 142.233 149.077 146.417 146.215 150.433 150.632 154.672 149.543 156.16 148.672 157.666 147.117 159.098 149.73 176.632 150.29 195.319 147.957 211.943 149.823 256.364 146.339 303.836 151.254 350.674 146.65 361.719 144.877 373.192 142.357 383.958 140.335 383.958 140.335 392.679 134.798 392.679 109.911S394.538 88.135 394.817 68.319C395.096 48.503 396.398 47.694 394.538 32.14Z" opacity="1" fill="#31c48d" data-fill-palette-color="tertiary"></path><g transform="matrix(1,0,0,1,55.76832,26.230666666666668)"><svg width="283.98335999999995" viewBox="2.5 -35.2 110.6525 37.95" height="97.38771952558454" data-palette-color="#ffffff"><path d="M23.55-23.25Q23.3-22.75 21.95-20.5L21.95-20.5Q23.2-19.75 23.7-19.55L23.7-19.55Q26.35-18.55 27.68-16.53 29-14.5 29-12.05L29-12.05Q29-9.65 27.75-7.3L27.75-7.3Q24.65-1.55 17.75 1.9L17.75 1.9Q16.05 2.75 14.4 2.75L14.4 2.75Q12 2.75 9.95 1.05L9.95 1.05Q9.15 0.4 8.05-0.4L8.05-0.4Q7.95-0.1 7.83 0.33 7.7 0.75 7.55 0.95L7.55 0.95Q6.95 1.85 6.05 1.85L6.05 1.85Q5.25 1.85 4.6 1.2L4.6 1.2Q2.8-0.45 2.8-2.55L2.8-2.55Q2.8-4.15 2.75-5.35 2.7-6.55 2.65-7.35L2.65-7.35Q2.6-8.35 2.55-9.85 2.5-11.35 2.5-13.35L2.5-13.35Q2.5-17.15 2.9-20.15L2.9-20.15Q3.45-24.55 5-28.4L5-28.4Q6.2-31.3 8.58-32.95 10.95-34.6 14.2-34.9L14.2-34.9Q15.7-35 16.5-35L16.5-35Q20.2-35 22.7-33.4L22.7-33.4Q24-32.6 24.73-31.3 25.45-30 25.45-28.5L25.45-28.5Q25.45-27.25 24.9-26L24.9-26 24.4-25Q24.05-24.2 23.55-23.25L23.55-23.25ZM19.6-27.4Q19.85-28.05 20.05-29.55L20.05-29.55 20.2-30.65Q18.7-31.3 17.35-31.3L17.35-31.3Q16.2-31.3 15.2-30.95L15.2-30.95Q13.05-30.25 11.63-28.83 10.2-27.4 9.38-25.7 8.55-24 7.75-21.5L7.75-21.5Q7.15-19.55 7.15-17.15L7.15-17.15Q7.15-15.85 7.35-13.35L7.35-13.35Q7.45-12.6 7.55-10.9L7.55-10.9Q7.6-9.55 8.1-5.35L8.1-5.35 8.3-3.7Q8.6-3.6 9.3-3.5L9.3-3.5Q10.25-3.4 10.75-3.1L10.75-3.1Q11.2-2.85 11.65-2.27 12.1-1.7 12.35-1.4L12.35-1.4Q15.35-2 17.48-3.85 19.6-5.7 21.65-8.65L21.65-8.65Q23.2-11.05 23.6-12.95L23.6-12.95Q23.75-13.7 23.75-14.3L23.75-14.3Q23.75-15.65 23.03-16.35 22.3-17.05 21.05-17.05L21.05-17.05Q20.3-17.05 19.65-16.85L19.65-16.85Q17.4-16.2 15.05-14L15.05-14Q13.85-12.95 12.65-12.95L12.65-12.95Q11.9-12.95 11.1-13.4L11.1-13.4Q10.15-13.95 9.5-14.6 8.85-15.25 8.4-16.3L8.4-16.3 9.55-17.1Q11.35-18.4 12.3-18.95L12.3-18.95Q17.15-21.55 19.6-27.4L19.6-27.4ZM38.7-23.3Q38.6-23 37.97-22.65 37.35-22.3 36.95-22L36.95-22 35.55-22.75Q33.5-23.85 32.75-24.5L32.75-24.5Q32.35-24.8 32.35-25.25L32.35-25.25Q32.35-25.55 32.57-25.78 32.8-26 33.25-26L33.25-26Q35.2-26 38-25L38-25Q38.3-24.95 38.55-24.33 38.8-23.7 38.7-23.3L38.7-23.3ZM34.2-14Q34.35-14.65 34.4-14.95 34.45-15.25 34.45-15.6L34.45-15.6Q34.45-16.3 34.87-16.7 35.3-17.1 36.5-17.1L36.5-17.1Q37.9-17.1 38.97-16.23 40.05-15.35 40.3-13.95L40.3-13.95Q40.45-13.25 40.5-12.4 40.55-11.55 40.55-11.3L40.55-11.3 41.25-2.75Q41.4-1.4 40.87-0.68 40.35 0.05 38.9 0.05L38.9 0.05Q37.65 0.05 36.77-0.65 35.9-1.35 35.7-2.45L35.7-2.45 34.4-13.05 34.2-14ZM50.95-21.1Q50.95-20.15 50.7-18.5L50.7-18.5Q50.5-16.6 50.45-15.45L50.45-15.45Q51.05-15.7 51.85-16.6L51.85-16.6Q52.3-17.1 52.75-17.45L52.75-17.45Q54.95-19 56.95-19L56.95-19Q59.05-19 61.4-17.25L61.4-17.25Q64.95-14.65 64.95-11.15L64.95-11.15Q64.95-8.4 62.65-5.35L62.65-5.35Q59.35-0.9 53.35 0L53.35 0Q53.05 0.05 52.45 0.05L52.45 0.05Q51.5 0.05 49.3-0.35L49.3-0.35Q49.3-0.85 49.15-1.45L49.15-1.45Q49.5-1.6 50.07-1.88 50.65-2.15 51.1-2.2L51.1-2.2Q52.65-2.35 54.57-3.83 56.5-5.3 57.95-7.25 59.4-9.2 59.6-10.65L59.6-10.65Q59.65-10.85 59.7-11.2 59.75-11.55 59.75-12.05L59.75-12.05Q59.75-12.55 59.6-12.9L59.6-12.9Q58.8-14.75 57.75-15.35L57.75-15.35Q57.45-15.5 56.7-15.03 55.95-14.55 55.5-14L55.5-14Q52.2-10.4 51.6-5.75L51.6-5.75Q51.4-3.95 49.55-4L49.55-4Q48.05-4 46.8-5.23 45.55-6.45 45.55-7.95L45.55-7.95Q45.5-15.5 45.5-30.55L45.5-30.55Q45.5-31.8 46.22-32.27 46.95-32.75 48.35-33.05L48.35-33.05Q48.95-33.2 49.7-32.8 50.45-32.4 51-31.75 51.55-31.1 51.55-30.45L51.55-30.45Q51.55-27.5 51.1-23.1L51.1-23.1 50.95-21.1ZM79.04-7.8Q78.54-7.5 77.59-7.5L77.59-7.5Q77.24-7.5 76.74-7.55 76.24-7.6 75.89-7.55L75.89-7.55Q76.29-5.9 77.79-4.88 79.29-3.85 81.14-3.85L81.14-3.85Q82.74-3.85 83.99-4.55L83.99-4.55Q85.84-5.5 87.19-6.8L87.19-6.8Q88.14-7.75 88.99-7.75L88.99-7.75Q89.54-7.75 89.94-7.2L89.94-7.2Q90.34-6.55 90.34-5.6L90.34-5.6Q90.34-4.6 89.94-4.05L89.94-4.05Q88.64-2.05 86.57-1.3 84.49-0.55 81.74-0.55L81.74-0.55Q78.89-0.55 76.24-1.8 73.59-3.05 71.72-5.23 69.84-7.4 69.24-10.05L69.24-10.05Q68.84-11.6 68.84-13.1L68.84-13.1Q68.84-15.45 70.17-16.9 71.49-18.35 74.44-19.65L74.44-19.65Q77.14-20.8 79.44-20.8L79.44-20.8Q81.09-20.8 82.64-20.3L82.64-20.3Q87.44-18.8 87.44-16.2L87.44-16.2Q87.44-14.55 85.49-12.2L85.49-12.2Q84.54-11.1 83.24-10.25 81.94-9.4 80.72-8.72 79.49-8.05 79.04-7.8L79.04-7.8ZM81.14-17.05Q81.09-17.3 80.77-17.48 80.44-17.65 80.39-17.7L80.39-17.7Q79.04-17.8 77.64-16.93 76.24-16.05 75.32-14.7 74.39-13.35 74.39-12.1L74.39-12.1 74.44-11.7Q74.49-11.5 74.97-11.2 75.44-10.9 75.54-11L75.54-11Q79.09-13.65 80.89-15.25L80.89-15.25Q81.19-15.55 81.19-16.35L81.19-16.35Q81.19-16.85 81.14-17.05L81.14-17.05ZM98.89-22.45Q98.89-22.2 98.77-21.28 98.64-20.35 98.64-19.8L98.64-19.8Q98.64-19.4 98.74-19.3L98.74-19.3 100.19-20.7Q100.99-21.6 101.59-22.1L101.59-22.1Q102.89-23.3 104.24-23.3L104.24-23.3Q105.34-23.3 105.89-22.45L105.89-22.45Q106.19-21.95 106.19-21.3L106.19-21.3Q106.19-20.8 105.99-20.55L105.99-20.55Q105.24-19.4 103.29-17.1L103.29-17.1Q102.54-16.3 102.54-15.55L102.54-15.55Q102.54-14.85 103.24-14L103.24-14Q103.84-13.3 104.94-11.9L104.94-11.9Q107.09-9.15 108.77-7.48 110.44-5.8 112.64-4.7L112.64-4.7Q112.89-4.6 113.04-4.23 113.19-3.85 113.14-3.65L113.14-3.65Q113.09-3.4 112.74-3.15 112.39-2.9 112.14-2.95L112.14-2.95Q111.39-3.15 110.89-3.2L110.89-3.2Q108.29-3.7 107.19-4.45L107.19-4.45Q105.39-5.7 102.09-8.8L102.09-8.8Q100.09-10.65 100.04-10.7L100.04-10.7 99.14-11.55Q98.09-12.6 98.09-12.6L98.09-12.6Q97.99-12.35 97.99-11.85L97.99-11.85Q97.99-11.4 98.07-10.88 98.14-10.35 98.09-10.15L98.09-10.15Q97.79-4.55 97.69-1.95L97.69-1.95Q97.59-0.3 96.92 0.55 96.24 1.4 95.04 1.2L95.04 1.2Q94.64 1.15 94.17 0.8 93.69 0.45 93.59 0.1L93.59 0.1Q93.04-2.1 93.04-4.2L93.04-4.2Q93.04-10.25 93.19-16.25L93.19-16.25 93.69-32.55Q93.74-35.2 96.44-35.2L96.44-35.2Q98.29-35.2 99.14-34.5 99.99-33.8 99.89-32.3L99.89-32.3 99.39-27.2Q99.19-25.45 98.89-22.45L98.89-22.45Z" opacity="1" transform="matrix(1,0,0,1,0,0)" fill="#ffffff" class="undefined-text-0" data-fill-palette-color="quaternary" id="text-0"></path></svg></g></svg></g></svg></g></svg></g><g></g></svg></g><defs></defs></svg><rect width="395.52" height="149.84905285891787" fill="none" stroke="none" visibility="hidden"></rect></g></svg></g></svg>