<svg xmlns="http://www.w3.org/2000/svg" version="1.1" xmlns:xlink="http://www.w3.org/1999/xlink" xmlns:svgjs="http://svgjs.dev/svgjs" width="128" height="128" viewBox="0 0 128 128"><g transform="matrix(0.5628415300546448,0,0,0.5628415300546448,28.130552439313703,12.333870967741937)"><svg viewBox="0 0 108 155" data-background-color="#ffffff" preserveAspectRatio="xMidYMid meet" height="183" width="128" xmlns="http://www.w3.org/2000/svg" xmlns:xlink="http://www.w3.org/1999/xlink"><g id="tight-bounds" transform="matrix(1,0,0,1,-0.2284768211920465,0.25)"><svg viewBox="0 0 108.45695364238411 154.5" height="154.5" width="108.45695364238411"><g><svg viewBox="0 0 108.45695364238411 154.5" height="154.5" width="108.45695364238411"><g><svg viewBox="0 0 108.45695364238411 154.5" height="154.5" width="108.45695364238411"><g id="textblocktransform"><svg viewBox="0 0 108.45695364238411 154.5" height="154.5" width="108.45695364238411" id="textblock"><g><svg viewBox="0 0 108.45695364238411 154.5" height="154.5" width="108.45695364238411"><g transform="matrix(1,0,0,1,0,0)"><svg width="108.45695364238411" viewBox="2.5 -35 26.5 37.75" height="154.5" data-palette-color="#31c48d"><path d="M23.55-23.25Q23.3-22.75 21.95-20.5L21.95-20.5Q23.2-19.75 23.7-19.55L23.7-19.55Q26.35-18.55 27.68-16.53 29-14.5 29-12.05L29-12.05Q29-9.65 27.75-7.3L27.75-7.3Q24.65-1.55 17.75 1.9L17.75 1.9Q16.05 2.75 14.4 2.75L14.4 2.75Q12 2.75 9.95 1.05L9.95 1.05Q9.15 0.4 8.05-0.4L8.05-0.4Q7.95-0.1 7.83 0.33 7.7 0.75 7.55 0.95L7.55 0.95Q6.95 1.85 6.05 1.85L6.05 1.85Q5.25 1.85 4.6 1.2L4.6 1.2Q2.8-0.45 2.8-2.55L2.8-2.55Q2.8-4.15 2.75-5.35 2.7-6.55 2.65-7.35L2.65-7.35Q2.6-8.35 2.55-9.85 2.5-11.35 2.5-13.35L2.5-13.35Q2.5-17.15 2.9-20.15L2.9-20.15Q3.45-24.55 5-28.4L5-28.4Q6.2-31.3 8.58-32.95 10.95-34.6 14.2-34.9L14.2-34.9Q15.7-35 16.5-35L16.5-35Q20.2-35 22.7-33.4L22.7-33.4Q24-32.6 24.73-31.3 25.45-30 25.45-28.5L25.45-28.5Q25.45-27.25 24.9-26L24.9-26 24.4-25Q24.05-24.2 23.55-23.25L23.55-23.25ZM19.6-27.4Q19.85-28.05 20.05-29.55L20.05-29.55 20.2-30.65Q18.7-31.3 17.35-31.3L17.35-31.3Q16.2-31.3 15.2-30.95L15.2-30.95Q13.05-30.25 11.63-28.83 10.2-27.4 9.38-25.7 8.55-24 7.75-21.5L7.75-21.5Q7.15-19.55 7.15-17.15L7.15-17.15Q7.15-15.85 7.35-13.35L7.35-13.35Q7.45-12.6 7.55-10.9L7.55-10.9Q7.6-9.55 8.1-5.35L8.1-5.35 8.3-3.7Q8.6-3.6 9.3-3.5L9.3-3.5Q10.25-3.4 10.75-3.1L10.75-3.1Q11.2-2.85 11.65-2.27 12.1-1.7 12.35-1.4L12.35-1.4Q15.35-2 17.48-3.85 19.6-5.7 21.65-8.65L21.65-8.65Q23.2-11.05 23.6-12.95L23.6-12.95Q23.75-13.7 23.75-14.3L23.75-14.3Q23.75-15.65 23.03-16.35 22.3-17.05 21.05-17.05L21.05-17.05Q20.3-17.05 19.65-16.85L19.65-16.85Q17.4-16.2 15.05-14L15.05-14Q13.85-12.95 12.65-12.95L12.65-12.95Q11.9-12.95 11.1-13.4L11.1-13.4Q10.15-13.95 9.5-14.6 8.85-15.25 8.4-16.3L8.4-16.3 9.55-17.1Q11.35-18.4 12.3-18.95L12.3-18.95Q17.15-21.55 19.6-27.4L19.6-27.4Z" opacity="1" transform="matrix(1,0,0,1,0,0)" fill="#31c48d" class="undefined-text-0" data-fill-palette-color="primary" id="text-0"></path></svg></g></svg></g></svg></g></svg></g><g></g></svg></g><defs></defs></svg><rect width="108.45695364238411" height="154.5" fill="none" stroke="none" visibility="hidden"></rect></g></svg></g></svg>